<svg width="146" height="27" viewBox="0 0 146 27" fill="none" xmlns="http://www.w3.org/2000/svg">
<path d="M9.044 26.252C7.34 26.252 5.84 25.88 4.544 25.136C3.272 24.392 2.276 23.336 1.556 21.968C0.86 20.6 0.512 19.016 0.512 17.216C0.512 15.392 0.872 13.784 1.592 12.392C2.336 11 3.368 9.92 4.688 9.152C6.008 8.384 7.52 8 9.224 8C10.136 8 11.048 8.132 11.96 8.396C12.896 8.66 13.724 9.02 14.444 9.476C15.212 10.004 15.596 10.616 15.596 11.312C15.596 11.72 15.488 12.068 15.272 12.356C15.056 12.62 14.78 12.752 14.444 12.752C14.228 12.752 14.012 12.704 13.796 12.608C13.58 12.488 13.304 12.32 12.968 12.104C12.368 11.72 11.804 11.432 11.276 11.24C10.772 11.024 10.16 10.916 9.44 10.916C7.808 10.916 6.536 11.468 5.624 12.572C4.736 13.676 4.292 15.212 4.292 17.18C4.292 19.148 4.736 20.672 5.624 21.752C6.512 22.808 7.772 23.336 9.404 23.336C10.124 23.336 10.76 23.228 11.312 23.012C11.864 22.796 12.428 22.508 13.004 22.148C13.268 21.98 13.532 21.836 13.796 21.716C14.06 21.596 14.3 21.536 14.516 21.536C14.852 21.536 15.128 21.68 15.344 21.968C15.56 22.232 15.668 22.568 15.668 22.976C15.668 23.312 15.572 23.624 15.38 23.912C15.212 24.176 14.912 24.452 14.48 24.74C13.76 25.22 12.92 25.592 11.96 25.856C11 26.12 10.028 26.252 9.044 26.252ZM26.5543 26.252C24.8263 26.252 23.3023 25.88 21.9823 25.136C20.6863 24.392 19.6783 23.336 18.9583 21.968C18.2623 20.576 17.9143 18.968 17.9143 17.144C17.9143 15.296 18.2623 13.688 18.9583 12.32C19.6783 10.928 20.6863 9.86 21.9823 9.116C23.3023 8.372 24.8263 8 26.5543 8C28.2823 8 29.7943 8.372 31.0903 9.116C32.4103 9.86 33.4183 10.928 34.1143 12.32C34.8343 13.688 35.1943 15.296 35.1943 17.144C35.1943 18.968 34.8343 20.576 34.1143 21.968C33.4183 23.336 32.4103 24.392 31.0903 25.136C29.7943 25.88 28.2823 26.252 26.5543 26.252ZM26.5543 23.372C28.1623 23.372 29.3863 22.844 30.2263 21.788C31.0903 20.732 31.5223 19.184 31.5223 17.144C31.5223 15.128 31.0903 13.592 30.2263 12.536C29.3623 11.456 28.1383 10.916 26.5543 10.916C24.9703 10.916 23.7463 11.456 22.8823 12.536C22.0183 13.592 21.5863 15.128 21.5863 17.144C21.5863 19.184 22.0063 20.732 22.8463 21.788C23.7103 22.844 24.9463 23.372 26.5543 23.372ZM41.5107 26.18C40.9587 26.18 40.5147 26.012 40.1787 25.676C39.8427 25.316 39.6747 24.86 39.6747 24.308V2.42C39.6747 1.868 39.8307 1.436 40.1427 1.124C40.4787 0.787998 40.9347 0.619998 41.5107 0.619998H54.3987C55.5507 0.619998 56.1267 1.124 56.1267 2.132C56.1267 3.14 55.5507 3.644 54.3987 3.644H43.3467V11.6H53.6787C54.8307 11.6 55.4067 12.104 55.4067 13.112C55.4067 14.12 54.8307 14.624 53.6787 14.624H43.3467V24.308C43.3467 24.884 43.1787 25.34 42.8427 25.676C42.5307 26.012 42.0867 26.18 41.5107 26.18ZM72.6788 8.072C73.2308 8.072 73.6628 8.228 73.9748 8.54C74.3108 8.852 74.4788 9.284 74.4788 9.836V24.488C74.4788 24.992 74.3108 25.4 73.9748 25.712C73.6388 26.024 73.1948 26.18 72.6428 26.18C72.1388 26.18 71.7308 26.036 71.4188 25.748C71.1068 25.436 70.9508 25.028 70.9508 24.524V23.156C70.3988 24.164 69.6308 24.932 68.6468 25.46C67.6868 25.988 66.6068 26.252 65.4068 26.252C61.1348 26.252 58.9988 23.9 58.9988 19.196V9.836C58.9988 9.284 59.1548 8.852 59.4668 8.54C59.8028 8.228 60.2588 8.072 60.8348 8.072C61.3868 8.072 61.8188 8.228 62.1308 8.54C62.4668 8.852 62.6348 9.284 62.6348 9.836V19.16C62.6348 20.576 62.9228 21.62 63.4988 22.292C64.0748 22.964 64.9628 23.3 66.1628 23.3C67.5788 23.3 68.7068 22.844 69.5468 21.932C70.4108 21.02 70.8428 19.808 70.8428 18.296V9.836C70.8428 9.308 71.0108 8.888 71.3468 8.576C71.6828 8.24 72.1268 8.072 72.6788 8.072ZM89.0349 8C93.2349 8 95.3349 10.364 95.3349 15.092V24.452C95.3349 25.004 95.1669 25.436 94.8309 25.748C94.5189 26.036 94.0749 26.18 93.4989 26.18C92.9469 26.18 92.5029 26.024 92.1669 25.712C91.8549 25.4 91.6989 24.98 91.6989 24.452V15.272C91.6989 13.784 91.3989 12.692 90.7989 11.996C90.2229 11.3 89.3109 10.952 88.0629 10.952C86.5989 10.952 85.4229 11.408 84.5349 12.32C83.6469 13.232 83.2029 14.456 83.2029 15.992V24.452C83.2029 24.98 83.0349 25.4 82.6989 25.712C82.3869 26.024 81.9549 26.18 81.4029 26.18C80.8509 26.18 80.4069 26.024 80.0709 25.712C79.7349 25.4 79.5669 24.98 79.5669 24.452V9.8C79.5669 9.296 79.7349 8.888 80.0709 8.576C80.4309 8.24 80.8749 8.072 81.4029 8.072C81.9309 8.072 82.3509 8.228 82.6629 8.54C82.9749 8.852 83.1309 9.26 83.1309 9.764V11.24C83.7069 10.184 84.5109 9.38 85.5429 8.828C86.5749 8.276 87.7389 8 89.0349 8ZM114.673 0.439999C115.225 0.439999 115.669 0.595999 116.005 0.907999C116.341 1.22 116.509 1.64 116.509 2.168V24.416C116.509 24.968 116.341 25.4 116.005 25.712C115.693 26.024 115.261 26.18 114.709 26.18C114.157 26.18 113.713 26.024 113.377 25.712C113.065 25.4 112.909 24.968 112.909 24.416V22.976C112.381 24.032 111.613 24.848 110.605 25.424C109.597 25.976 108.433 26.252 107.113 26.252C105.601 26.252 104.245 25.868 103.045 25.1C101.869 24.332 100.945 23.252 100.273 21.86C99.6251 20.468 99.3011 18.872 99.3011 17.072C99.3011 15.248 99.6251 13.652 100.273 12.284C100.945 10.916 101.869 9.86 103.045 9.116C104.221 8.372 105.577 8 107.113 8C108.433 8 109.585 8.288 110.569 8.864C111.577 9.416 112.345 10.208 112.873 11.24V2.096C112.873 1.592 113.029 1.196 113.341 0.907999C113.677 0.595999 114.121 0.439999 114.673 0.439999ZM107.977 23.372C109.537 23.372 110.749 22.832 111.613 21.752C112.477 20.672 112.909 19.136 112.909 17.144C112.909 15.152 112.477 13.616 111.613 12.536C110.773 11.456 109.561 10.916 107.977 10.916C106.393 10.916 105.157 11.456 104.269 12.536C103.405 13.592 102.973 15.104 102.973 17.072C102.973 19.04 103.417 20.588 104.305 21.716C105.193 22.82 106.417 23.372 107.977 23.372ZM123.415 26.18C122.887 26.18 122.443 26.036 122.083 25.748C121.747 25.46 121.579 25.028 121.579 24.452V9.836C121.579 9.26 121.747 8.828 122.083 8.54C122.443 8.228 122.887 8.072 123.415 8.072C123.943 8.072 124.375 8.228 124.711 8.54C125.047 8.828 125.215 9.26 125.215 9.836V24.452C125.215 25.028 125.047 25.46 124.711 25.748C124.375 26.036 123.943 26.18 123.415 26.18ZM123.415 4.544C122.719 4.544 122.167 4.352 121.759 3.968C121.351 3.584 121.147 3.08 121.147 2.456C121.147 1.832 121.351 1.34 121.759 0.979998C122.167 0.595999 122.719 0.403999 123.415 0.403999C124.087 0.403999 124.627 0.595999 125.035 0.979998C125.467 1.34 125.683 1.832 125.683 2.456C125.683 3.08 125.479 3.584 125.071 3.968C124.663 4.352 124.111 4.544 123.415 4.544ZM144.049 21.572C144.385 21.572 144.661 21.704 144.877 21.968C145.093 22.232 145.201 22.568 145.201 22.976C145.201 23.672 144.769 24.26 143.905 24.74C143.065 25.22 142.141 25.592 141.133 25.856C140.149 26.12 139.201 26.252 138.289 26.252C135.505 26.252 133.309 25.448 131.701 23.84C130.093 22.208 129.289 19.988 129.289 17.18C129.289 15.38 129.637 13.784 130.333 12.392C131.053 11 132.049 9.92 133.321 9.152C134.617 8.384 136.081 8 137.713 8C140.065 8 141.925 8.756 143.293 10.268C144.661 11.78 145.345 13.82 145.345 16.388C145.345 17.348 144.913 17.828 144.049 17.828H132.925C133.165 21.548 134.953 23.408 138.289 23.408C139.177 23.408 139.945 23.288 140.593 23.048C141.241 22.808 141.925 22.496 142.645 22.112C142.717 22.064 142.909 21.968 143.221 21.824C143.557 21.656 143.833 21.572 144.049 21.572ZM137.785 10.664C136.393 10.664 135.277 11.108 134.437 11.996C133.597 12.884 133.093 14.132 132.925 15.74H142.213C142.141 14.108 141.721 12.86 140.953 11.996C140.209 11.108 139.153 10.664 137.785 10.664Z" fill="white"/>
</svg>
